<?xml version="1.0" encoding="UTF-8"?>
<svg version="1.1" xmlns="http://www.w3.org/2000/svg" width="192" height="128">
<path d="M0 0 C1.08700195 0.56106445 2.17400391 1.12212891 3.29394531 1.70019531 C3.88000549 2.00145325 4.46606567 2.30271118 5.06988525 2.61309814 C6.2998761 3.24941067 7.52672036 3.89183912 8.75048828 4.54003906 C10.6220067 5.52828672 12.50546685 6.49019544 14.39160156 7.45019531 C15.58901485 8.07366374 16.78565806 8.69861388 17.98144531 9.32519531 C19.06393555 9.89077148 20.14642578 10.45634766 21.26171875 11.0390625 C23.91083445 12.80414857 24.82611381 13.82474607 25.87207031 16.77832031 C25.19144531 17.23207031 24.51082031 17.68582031 23.80957031 18.15332031 C21.14537613 21.76287372 21.81974685 24.05908067 22.44238281 28.36035156 C23.09127351 32.08259942 23.09127351 32.08259942 23.87207031 35.77832031 C22.22207031 36.43832031 20.57207031 37.09832031 18.87207031 37.77832031 C18.21207031 37.11832031 17.55207031 36.45832031 16.87207031 35.77832031 C17.17611709 34.10606302 17.51835533 32.44078072 17.87207031 30.77832031 C17.9143011 29.21763936 17.92526121 27.65591485 17.91113281 26.09472656 C17.90549316 25.28592041 17.89985352 24.47711426 17.89404297 23.64379883 C17.88679199 23.02819092 17.87954102 22.41258301 17.87207031 21.77832031 C17.30697754 22.07601318 16.74188477 22.37370605 16.15966797 22.68041992 C13.6055818 24.02576813 11.05132814 25.37079805 8.49707031 26.71582031 C7.60761719 27.18439453 6.71816406 27.65296875 5.80175781 28.13574219 C4.95097656 28.58369141 4.10019531 29.03164063 3.22363281 29.49316406 C2.43811035 29.90687256 1.65258789 30.32058105 0.84326172 30.74682617 C-3.72242327 33.13597889 -7.14416404 33.03015838 -12.12792969 31.77832031 C-16.8100016 29.71365415 -21.24229966 27.23567282 -25.69042969 24.71582031 C-26.90125016 24.04451122 -28.11283415 23.37457733 -29.32519531 22.70605469 C-32.26721449 21.07680901 -35.20078524 19.43409487 -38.12792969 17.77832031 C-38.12792969 16.45832031 -38.12792969 15.13832031 -38.12792969 13.77832031 C-34.11599616 11.62620836 -30.0958488 9.49063357 -26.06738281 7.36962891 C-24.69946955 6.64652433 -23.333866 5.91903215 -21.97070312 5.18701172 C-20.005656 4.13277111 -18.03271719 3.09482797 -16.05761719 2.05957031 C-15.4542453 1.73146362 -14.85087341 1.40335693 -14.22921753 1.06530762 C-9.02542437 -1.62841211 -5.47805636 -2.13957181 0 0 Z " fill="#9418AC" transform="translate(102.1279296875,19.2216796875)"/>
<path d="M0 0 C4.65530543 2.63655616 8.10167344 5.91243194 9.65234375 11.12109375 C9.94750758 14.48596145 9.89618461 17.75473523 9.65234375 21.12109375 C8.00234375 21.45109375 6.35234375 21.78109375 4.65234375 22.12109375 C4.38421875 21.08984375 4.11609375 20.05859375 3.83984375 18.99609375 C2.03742444 12.69742806 2.03742444 12.69742806 -2.03515625 7.74609375 C-5.6249015 6.77589233 -8.72752562 6.25541034 -12.34765625 7.12109375 C-17.16914424 10.23060412 -20.98791962 14.50145589 -24.34765625 19.12109375 C-20.05911931 21.00805001 -15.82004278 22.70301997 -11.34765625 24.12109375 C-11.84265625 26.59609375 -11.84265625 26.59609375 -12.34765625 29.12109375 C-18.80658339 29.5247767 -23.40874203 28.71261995 -29.34765625 26.12109375 C-29.01765625 24.80109375 -28.68765625 23.48109375 -28.34765625 22.12109375 C-29.37890625 22.90484375 -30.41015625 23.68859375 -31.47265625 24.49609375 C-37.64603698 28.85450054 -42.96956932 29.41621723 -50.34765625 29.12109375 C-51.47265625 25.37109375 -51.47265625 25.37109375 -50.34765625 23.12109375 C-48.52877461 22.66342061 -46.69089918 22.28036546 -44.84765625 21.93359375 C-34.35186069 19.41509907 -28.58291627 12.62266286 -21.8046875 4.57421875 C-15.83060153 -1.39036947 -7.93109037 -2.9692102 0 0 Z " fill="#8816A0" transform="translate(127.34765625,81.87890625)"/>
<path d="M0 0 C3.83620803 0.49034238 6.62797527 1.80630363 9.96020508 3.73144531 C15.44851202 6.93259012 15.44851202 6.93259012 21.59765625 7.96875 C23.94840274 7.20589752 25.87567039 6.26193882 28 5 C28.80566406 4.55785156 29.61132812 4.11570312 30.44140625 3.66015625 C31.99600631 2.79926216 33.53594294 1.9109594 35.0546875 0.98828125 C37 0 37 0 40 0 C40.78044935 11.03035081 40.78044935 11.03035081 37.9375 14.5625 C36.968125 15.036875 35.99875 15.51125 35 16 C33.948125 16.556875 32.89625 17.11375 31.8125 17.6875 C22.33749397 21.38356916 13.10836654 20.03697003 3.90625 16.10546875 C2.25 15.0625 2.25 15.0625 0 12 C-0.47590065 7.94955666 -0.34938762 4.05677843 0 0 Z " fill="#8C15A3" transform="translate(76,45)"/>
<path d="M0 0 C5.84207458 3.67796695 10.22426766 8.66199373 14.55859375 13.9765625 C12.08359375 16.4515625 12.08359375 16.4515625 9.55859375 18.9765625 C6.47758735 16.52576195 3.88049349 14.383671 1.43359375 11.2890625 C-1.64486732 7.49229385 -3.50505725 7.08060128 -8.37890625 6.5390625 C-11.63644359 6.6482537 -12.466966 6.99378755 -15.31640625 8.9140625 C-18.01216381 12.79912487 -18.76646174 16.35268894 -19.44140625 20.9765625 C-21.09755282 21.35875017 -22.76597649 21.69051352 -24.44140625 21.9765625 C-26.14933624 20.26863251 -25.69410971 18.12112769 -25.75390625 15.7890625 C-25.70088733 10.67273692 -24.9584917 7.8738734 -21.44140625 3.9765625 C-15.41757199 -1.45958062 -7.71346951 -3.23348642 0 0 Z " fill="#8A16A1" transform="translate(80.44140625,82.0234375)"/>
<path d="M0 0 C3.36212535 2.10132834 3.87491411 3.57783511 5 7.375 C5 11 5 11 3.625 14.375 C0.48370168 17.51629832 -1.38180424 18.101842 -5.73828125 18.2890625 C-9.93939033 17.75213319 -11.35292729 16.32580931 -14 13 C-14.79461213 10.13824471 -14.75169938 7.86802224 -14 5 C-10.42965778 -0.52827182 -6.14319619 -1.21715663 0 0 Z " fill="#8D16A5" transform="translate(124,61)"/>
<path d="M0 0 C2.50160818 1.87620613 3.61945652 3.23891303 5 6 C5.39967133 9.59704193 5.2209028 11.56779887 3.5625 14.8125 C0.41648228 17.49812488 -1.73858424 17.97293607 -5.80859375 18.1875 C-8 18 -8 18 -11 16.5625 C-13.66932722 13.1424245 -14.16776894 10.29135291 -14 6 C-11.89220768 -0.67467568 -6.06180884 -0.92078109 0 0 Z " fill="#8E17A6" transform="translate(77,61)"/>
<path d="M0 0 C0.33 0 0.66 0 1 0 C1.06058594 0.66386719 1.12117188 1.32773437 1.18359375 2.01171875 C1.79863507 8.54908081 1.79863507 8.54908081 3 15 C1.35 15.66 -0.3 16.32 -2 17 C-2.66 16.34 -3.32 15.68 -4 15 C-3.625 12.375 -3.625 12.375 -3 10 C-2.34 10 -1.68 10 -1 10 C-1.01160156 9.36191406 -1.02320312 8.72382812 -1.03515625 8.06640625 C-1.04869141 6.82697266 -1.04869141 6.82697266 -1.0625 5.5625 C-1.07410156 4.73878906 -1.08570312 3.91507813 -1.09765625 3.06640625 C-1 1 -1 1 0 0 Z " fill="#9627AB" transform="translate(123,40)"/>
</svg>
